<svg xmlns="http://www.w3.org/2000/svg" viewBox="0 0 64 64" fill="none">
  <rect width="64" height="64" rx="16" fill="#1a0b2e"/>
  <g transform="translate(32 32) scale(0.72) translate(-40 -40)">
    <g stroke="#c4b5fd" stroke-width="6.5" stroke-linecap="round" stroke-linejoin="round" fill="none">
      <g transform="rotate(0 40 40)">
        <path d="M 20.083 23.288 A 26 26 0 0 1 59.917 23.288"/>
        <path d="M 52.062 21.394 L 59.917 23.288 L 59.416 15.224"/>
      </g>
      <g transform="rotate(120 40 40)">
        <path d="M 20.083 23.288 A 26 26 0 0 1 59.917 23.288"/>
        <path d="M 52.062 21.394 L 59.917 23.288 L 59.416 15.224"/>
      </g>
      <g transform="rotate(240 40 40)">
        <path d="M 20.083 23.288 A 26 26 0 0 1 59.917 23.288"/>
        <path d="M 52.062 21.394 L 59.917 23.288 L 59.416 15.224"/>
      </g>
    </g>
  </g>
</svg>
